<svg width="20" height="14" viewBox="0 0 20 14" fill="none" xmlns="http://www.w3.org/2000/svg">
    <path d="M19.0582 6.09046H3.17316L7.53442 1.67511C7.8974 1.30765 7.8974 0.711972 7.53442 0.34451C7.17138 -0.022877 6.58297 -0.022877 6.22007 0.34451L0.272267 6.36602C-0.0907812 6.73348 -0.0907812 7.32916 0.272267 7.69662L6.22022 13.7181C6.40156 13.9017 6.63955 13.9937 6.8774 13.9937C7.11524 13.9937 7.35301 13.9017 7.53457 13.7181C7.89755 13.3507 7.89755 12.755 7.53457 12.3875L3.17316 7.97218H19.0582C19.5714 7.97218 19.9876 7.55082 19.9876 7.03132C19.9876 6.51174 19.5714 6.09046 19.0582 6.09046Z"
          fill="currentColor"/>
</svg>
