<svg width="20" height="14" viewBox="0 0 20 14" fill="none" xmlns="http://www.w3.org/2000/svg">
    <path d="M19.0625 0.125H0.937516C0.419379 0.125 0 0.545 0 1.06248C0 1.57997 0.419379 2 0.937516 2H19.0625C19.5806 2 20 1.58 20 1.06248C20 0.544967 19.5806 0.125 19.0625 0.125Z"
          fill="currentColor"/>
    <path d="M19.0625 6.125H0.937516C0.419379 6.125 0 6.545 0 7.06248C0 7.57997 0.419379 8 0.937516 8H19.0625C19.5806 8 20 7.58 20 7.06248C20 6.54497 19.5806 6.125 19.0625 6.125Z"
          fill="currentColor"/>
    <path d="M19.0625 12.125H0.937516C0.419379 12.125 0 12.545 0 13.0625C0 13.58 0.419379 14 0.937516 14H19.0625C19.5806 14 20 13.58 20 13.0625C20 12.545 19.5806 12.125 19.0625 12.125Z"
          fill="currentColor"/>
</svg>
