<svg width="18" height="18" viewBox="0 0 18 18" fill="none" xmlns="http://www.w3.org/2000/svg">
    <path d="M17.5555 16.0633C18.0529 16.5607 18.1524 17.257 17.7545 17.655C17.3565 18.0529 16.6602 17.9534 16.1627 17.456L9 10.4922L1.93674 17.5555C1.43933 18.0529 0.742953 18.1524 0.345023 17.7545C-0.0529068 17.3565 0.0465756 16.6602 0.543988 16.1627L7.50776 9L0.444506 1.93674C-0.0529069 1.43933 -0.152389 0.742953 0.245541 0.345023C0.643471 -0.0529068 1.33985 0.0465756 1.83726 0.543988L9 7.50776L16.0633 0.444506C16.5607 -0.0529069 17.257 -0.152389 17.655 0.245541C18.0529 0.643471 17.9534 1.33985 17.456 1.83726L10.4922 9L17.5555 16.0633Z"
          fill="currentColor"/>
</svg>
