<svg width="18" height="20" viewBox="0 0 18 20" fill="none" xmlns="http://www.w3.org/2000/svg">
    <path fill-rule="evenodd" clip-rule="evenodd"
          d="M16.5 1.875H14.0281V0.625C14.0281 0.279369 13.6304 0 13.2157 0H4.73322C4.31846 0 3.99167 0.279369 3.99167 0.625V1.875H1.5C0.672 1.875 0 2.43437 0 3.125V18.75C0 19.4406 0.672 20 1.5 20H16.5C17.328 20 18 19.44 18 18.75V3.125C18 2.43437 17.328 1.875 16.5 1.875ZM5 12.875H13V11H5V12.875ZM12 1.875H6V3.75H12V1.875ZM15.875 18.125H1.875V3.75H4.02723V5C4.02723 5.34563 4.15228 5.625 4.5824 5.625H13.4037C13.8339 5.625 14.0283 5.34563 14.0283 5V3.75H15.875V18.125ZM13 9.375H5V7.5H13V9.375Z"
          fill="currentColor"/>
</svg>
