<svg width="201" height="27" viewBox="0 0 201 27" fill="none" xmlns="http://www.w3.org/2000/svg">
    <path fill-rule="evenodd" clip-rule="evenodd"
          d="M145.598 12.015C145.598 4.9275 149.99 0 156.273 0C162.557 0 166.813 4.9275 166.813 11.6775C166.813 18.9675 162.422 23.6925 156.138 23.6925C149.855 23.6925 145.598 18.9675 145.598 12.015ZM66.2118 0.405L66.7523 3.0375L62.5634 23.355H63.8471L65.401 15.7275H69.3872L71.0087 23.355H73.6437L68.7792 0.3375H66.2118V0.405ZM65.6713 14.445L67.3603 5.8725L69.117 14.445H65.6713ZM59.7257 0.405H57.2259V9.045H52.2938V0.405H49.7939V23.4225H52.3613V10.395H57.2259V23.4225H59.7257V0.405ZM42.4296 9.045L46.9563 23.355H44.3213L40.2 10.3275H37.6326V23.355H35.1328V10.395H32.6329L28.5116 23.4225H25.8766L30.4034 9.1125L27.0928 0.405H28.3765L31.7546 9.045H35.1328V0.405H37.6326V9.045H41.0108L44.3889 0.405H45.6726L42.4296 9.045ZM9.93176 0.405H7.43193H7.36437V9.045H2.49983V0.405H0V23.4225H2.49983V10.395H7.43193V23.4225H9.93176V0.405ZM22.9039 0.405H24.1876L21.1472 14.445L19.1879 23.4225H17.9042L19.5933 15.795H16.6881L13.1072 0.405H15.7422L18.9176 14.445H19.8635L22.9039 0.405ZM156.273 22.545C151.138 22.545 148.436 17.4825 148.436 11.6775C148.436 5.94 151.003 1.1475 156.138 1.1475C161.273 1.1475 163.975 6.0075 163.975 12.0825C163.975 17.4825 161.408 22.545 156.273 22.545ZM96.0071 0.405H86.1429V23.355H88.6427V1.6875H93.5072V23.4225H96.0071V0.405ZM193.23 9.18V0.405H190.73V23.4225H193.23C198.5 23.4225 201 20.7225 201 16.1325C200.932 11.5425 198.433 9.2475 193.23 9.18ZM193.23 10.3275V22.2075C197.284 22.2075 198.095 19.44 198.095 16.47C198.095 13.5 197.284 10.3275 193.23 10.3275ZM186.204 22.0725H188.231V27H186.947V23.355H169.786V0.405H172.286V22.0725H176.677V0.405H179.177V22.0725H183.569V0.405H186.069V22.0725H186.204ZM142.558 0.405H140.058V2.295L133.369 9.315L124.992 0.405H121.411L123.573 2.7V23.355H124.856V4.05L132.491 12.0825L140.058 4.05V23.4225H142.558V0.405ZM109.722 0C103.439 0 99.0474 4.9275 99.0474 12.015C99.0474 18.9675 103.304 23.6925 109.587 23.6925C115.871 23.6925 120.262 18.9675 120.262 11.6775C120.262 4.9275 116.006 0 109.722 0ZM101.885 11.6775C101.885 17.4825 104.588 22.545 109.722 22.545C114.857 22.545 117.425 17.4825 117.425 12.0825C117.425 6.0075 114.722 1.1475 109.587 1.1475C104.452 1.1475 101.885 5.94 101.885 11.6775Z"
          fill="currentColor"/>
</svg>
